<svg xmlns="http://www.w3.org/2000/svg" width="126" height="126" viewBox="0 0 126 126" shape-rendering="geometricPrecision">
  <path d="M 61 0 L 60 1 L 51 1 L 50 2 L 47 2 L 46 3 L 44 3 L 43 4 L 41 4 L 40 5 L 38 5 L 37 6 L 36 6 L 35 7 L 34 7 L 33 8 L 32 8 L 30 10 L 29 10 L 28 11 L 27 11 L 24 14 L 23 14 L 14 23 L 14 24 L 11 27 L 11 28 L 9 30 L 9 31 L 8 32 L 8 33 L 7 34 L 7 35 L 6 36 L 6 37 L 5 38 L 5 40 L 4 41 L 4 42 L 3 43 L 3 46 L 2 47 L 2 50 L 1 51 L 1 59 L 0 60 L 0 64 L 1 65 L 1 74 L 2 75 L 2 78 L 3 79 L 3 81 L 4 82 L 4 84 L 5 85 L 5 87 L 6 88 L 6 89 L 7 90 L 7 91 L 8 92 L 8 93 L 10 95 L 10 96 L 11 97 L 11 98 L 14 101 L 14 102 L 23 111 L 24 111 L 27 114 L 28 114 L 30 116 L 31 116 L 32 117 L 33 117 L 34 118 L 35 118 L 36 119 L 37 119 L 38 120 L 40 120 L 41 121 L 42 121 L 43 122 L 46 122 L 47 123 L 50 123 L 51 124 L 60 124 L 61 125 L 64 125 L 65 124 L 73 124 L 74 123 L 78 123 L 79 122 L 81 122 L 82 121 L 84 121 L 85 120 L 87 120 L 88 119 L 89 119 L 90 118 L 91 118 L 92 117 L 93 117 L 95 115 L 96 115 L 97 114 L 98 114 L 101 111 L 102 111 L 111 102 L 111 101 L 114 98 L 114 97 L 116 95 L 116 94 L 117 93 L 117 92 L 118 91 L 118 90 L 119 89 L 119 88 L 120 87 L 120 85 L 121 84 L 121 83 L 122 82 L 122 79 L 123 78 L 123 75 L 124 74 L 124 65 L 125 64 L 125 61 L 124 60 L 124 52 L 123 51 L 123 47 L 122 46 L 122 44 L 121 43 L 121 41 L 120 40 L 120 38 L 119 37 L 119 36 L 118 35 L 118 34 L 117 33 L 117 32 L 115 30 L 115 29 L 114 28 L 114 27 L 111 24 L 111 23 L 102 14 L 101 14 L 98 11 L 97 11 L 95 9 L 94 9 L 93 8 L 92 8 L 91 7 L 90 7 L 89 6 L 88 6 L 87 5 L 85 5 L 84 4 L 83 4 L 82 3 L 79 3 L 78 2 L 75 2 L 74 1 L 66 1 L 65 0 Z" fill="#333333"/>
  <path d="M 37 72 L 35 74 L 35 75 L 33 77 L 33 78 L 31 80 L 31 81 L 30 82 L 30 83 L 29 84 L 29 85 L 28 86 L 28 87 L 27 88 L 27 95 L 28 96 L 28 97 L 32 101 L 33 101 L 34 102 L 43 102 L 45 100 L 46 100 L 46 99 L 48 97 L 48 96 L 49 95 L 49 93 L 50 92 L 50 90 L 49 89 L 49 87 L 48 86 L 48 85 L 47 84 L 47 83 L 46 82 L 46 81 L 44 79 L 44 78 L 42 76 L 42 75 L 39 72 Z" fill="#FFFFFF"/>
  <path d="M 59 82 L 59 84 L 61 86 L 65 86 L 66 87 L 70 87 L 71 88 L 73 88 L 74 89 L 76 89 L 78 91 L 79 91 L 83 95 L 84 95 L 87 98 L 90 98 L 92 96 L 92 94 L 91 93 L 91 92 L 88 89 L 87 89 L 84 86 L 83 86 L 81 84 L 80 84 L 79 83 L 78 83 L 77 82 L 75 82 L 74 81 L 72 81 L 71 80 L 65 80 L 64 79 L 62 79 L 61 80 L 60 80 L 60 81 Z" fill="#FFFFFF"/>
  <path d="M 80 43 L 79 44 L 78 44 L 77 45 L 77 46 L 76 47 L 76 48 L 75 49 L 75 52 L 76 53 L 76 54 L 79 57 L 81 57 L 82 58 L 85 58 L 86 57 L 87 57 L 89 55 L 89 54 L 90 53 L 90 47 L 87 44 L 86 44 L 85 43 Z" fill="#FFFFFF"/>
  <path d="M 39 43 L 36 46 L 36 47 L 35 48 L 35 53 L 36 54 L 36 55 L 37 56 L 38 56 L 39 57 L 40 57 L 41 58 L 44 58 L 45 57 L 46 57 L 49 54 L 49 52 L 50 51 L 50 49 L 49 48 L 49 47 L 48 46 L 48 45 L 47 45 L 45 43 Z" fill="#FFFFFF"/>
</svg>